<svg id="Warstwa_1" data-name="Warstwa 1" xmlns="http://www.w3.org/2000/svg" viewBox="0 0 118.87 85.22"><defs><style>.cls-1{fill:#fff;}.cls-2{fill:#dfdfdf;}</style></defs><path class="cls-1" d="M-148.11,420.69q0,19.32,0,38.63c0,3.86-1.62,4.8-4.94,2.87q-21-12.18-41.89-24.36a3.9,3.9,0,0,1-2.18-3.86q.1-13.44,0-26.88a3.91,3.91,0,0,1,2.22-3.84q21.07-12.19,42.11-24.46c3-1.75,4.69-.76,4.69,2.78Q-148.08,401.13-148.11,420.69Z" transform="translate(228.68 -377.94)"/><path class="cls-1" d="M-199.62,437.23c-5.2,0-10.45.57-15.52-.13-8.06-1.1-13.9-9.07-13.52-17.29s6.79-15.39,15-16.1c4.2-.37,8.46-.15,12.69-.19a13,13,0,0,1,1.38.16Z" transform="translate(228.68 -377.94)"/><path class="cls-2" d="M-193.28,441.47c-3,6.54-5.63,12.61-8.51,18.57a3.87,3.87,0,0,1-2.83,1.66c-3.59.23-7.19.19-10.79.15-2.62,0-3.64-1.55-2.58-4q3.57-8.25,7.4-16.38a2.64,2.64,0,0,1,2-1.22c3.83-.12,7.68-.15,11.51,0C-195.95,440.31-194.79,441-193.28,441.47Z" transform="translate(228.68 -377.94)"/><path class="cls-1" d="M-145.32,431.14V410c1.62,0,3.29-.33,4.71.11a3.67,3.67,0,0,1,2.1,2.62c.2,5.18.11,10.37.09,15.56a2.53,2.53,0,0,1-2.79,2.85C-142.48,431.16-143.75,431.14-145.32,431.14Z" transform="translate(228.68 -377.94)"/><path class="cls-2" d="M-111.8,388.27c.47.43,1.55,1,1.77,1.77a3,3,0,0,1-.72,2.69c-4.29,2.61-8.66,5.09-13.14,7.36-.66.33-2.39-.41-2.9-1.15a3,3,0,0,1,.47-2.89c4.34-2.66,8.84-5.08,13.29-7.57A6.73,6.73,0,0,1-111.8,388.27Z" transform="translate(228.68 -377.94)"/><path class="cls-2" d="M-112.24,453c-.94-.44-1.46-.64-1.94-.91-3.7-2.05-7.37-4.13-11.07-6.17-1.61-.89-2.58-2.11-1.58-3.87s2.58-1.44,4.14-.55c3.81,2.17,7.7,4.19,11.41,6.53a3.86,3.86,0,0,1,1.18,3.14C-110.19,451.86-111.57,452.43-112.24,453Z" transform="translate(228.68 -377.94)"/><path class="cls-2" d="M-118.56,423c-2,0-4,0-6,0a2.29,2.29,0,0,1-2.59-2.49,2.34,2.34,0,0,1,2.63-2.48q6,0,12,0c1.71,0,2.79.9,2.72,2.64S-111,423-112.57,423Z" transform="translate(228.68 -377.94)"/></svg>