<?xml version="1.0" encoding="utf-8"?>
<!-- Generator: Adobe Illustrator 25.2.3, SVG Export Plug-In . SVG Version: 6.00 Build 0)  -->
<svg version="1.1" id="Warstwa_1" xmlns="http://www.w3.org/2000/svg" xmlns:xlink="http://www.w3.org/1999/xlink" x="0px" y="0px"
	 viewBox="0 0 118.9 85.2" style="enable-background:new 0 0 118.9 85.2;" xml:space="preserve">
<style type="text/css">
	.st0{fill:#3D09A2;}
	.st1{fill:#FF007C;}
</style>
<path class="st0" d="M80.6,42.7c0,12.9,0,25.8,0,38.6c0,3.9-1.6,4.8-4.9,2.9c-14-8.1-28-16.2-41.9-24.4c-1.5-0.7-2.3-2.2-2.2-3.9
	c0.1-9,0.1-17.9,0-26.9c-0.1-1.6,0.8-3.1,2.2-3.8C47.8,17.2,61.9,9,75.9,0.9c3-1.8,4.7-0.8,4.7,2.8C80.6,16.7,80.6,29.7,80.6,42.7z"
	/>
<path class="st0" d="M29.1,59.3c-5.2,0-10.4,0.6-15.5-0.1C5.5,58.1-0.4,50.1,0,41.9s6.8-15.4,15-16.1c4.2-0.4,8.5-0.1,12.7-0.2
	c0.5,0,0.9,0.1,1.4,0.2L29.1,59.3z"/>
<path class="st1" d="M35.4,63.5c-3,6.5-5.6,12.6-8.5,18.6c-0.7,0.9-1.7,1.6-2.8,1.7c-3.6,0.2-7.2,0.2-10.8,0.1c-2.6,0-3.6-1.5-2.6-4
	c2.4-5.5,4.8-11,7.4-16.4c0.4-0.7,1.2-1.1,2-1.2c3.8-0.1,7.7-0.1,11.5,0C32.7,62.4,33.9,63.1,35.4,63.5z"/>
<path class="st1" d="M83.4,53.2V32.1c1.6,0,3.3-0.3,4.7,0.1c1.1,0.5,1.9,1.5,2.1,2.6c0.2,5.2,0.1,10.4,0.1,15.6
	c0.2,1.4-0.8,2.7-2.2,2.8c-0.2,0-0.4,0-0.6,0C86.2,53.2,84.9,53.2,83.4,53.2z"/>
<path class="st1" d="M116.9,10.3c0.5,0.4,1.6,1,1.8,1.8c0.2,1-0.1,2-0.7,2.7c-4.3,2.6-8.7,5.1-13.1,7.4c-0.7,0.3-2.4-0.4-2.9-1.1
	c-0.4-1-0.2-2.1,0.5-2.9c4.3-2.7,8.8-5.1,13.3-7.6C116.1,10.4,116.5,10.4,116.9,10.3z"/>
<path class="st1" d="M116.4,75.1c-0.9-0.4-1.5-0.6-1.9-0.9c-3.7-2-7.4-4.1-11.1-6.2c-1.6-0.9-2.6-2.1-1.6-3.9s2.6-1.4,4.1-0.5
	c3.8,2.2,7.7,4.2,11.4,6.5c0.9,0.8,1.3,2,1.2,3.1C118.5,73.9,117.1,74.5,116.4,75.1z"/>
<path class="st1" d="M110.1,45.1c-2,0-4,0-6,0c-1.3,0.2-2.4-0.7-2.6-2c0-0.2,0-0.4,0-0.5c-0.1-1.3,0.9-2.4,2.2-2.5
	c0.2,0,0.3,0,0.5,0c4,0,8,0,12,0c1.7,0,2.8,0.9,2.7,2.6s-1.2,2.3-2.8,2.3H110.1z"/>
</svg>
